<?xml version="1.0" encoding="utf-8"?>
<!-- Generator: Adobe Illustrator 19.1.0, SVG Export Plug-In . SVG Version: 6.00 Build 0)  -->
<!DOCTYPE svg PUBLIC "-//W3C//DTD SVG 1.1//EN" "http://www.w3.org/Graphics/SVG/1.1/DTD/svg11.dtd">
<svg version="1.1" id="Layer_1" xmlns="http://www.w3.org/2000/svg" xmlns:xlink="http://www.w3.org/1999/xlink" x="0px" y="0px"
	 width="648px" height="864px" viewBox="0 0 648 864" style="enable-background:new 0 0 648 864;" xml:space="preserve">
<style type="text/css">
	.st0{fill:#030202;}
	.st1{fill:#4AC1BB;stroke:#030202;stroke-miterlimit:10;}
</style>
<g>
	<path class="st0" d="M238.4,345.9c0,0,11.6-6.9,17.2-6.9s142.5,0,142.5,0s16.6,7.9,20.5,13.5c3.9,5.6,10.1,11.1,10.1,17.7
		s0,117.1,0,117.1s-2.9,12.1-7.3,16.7c-4.4,4.5-13.3,11-16.6,14.1c-3.3,3.1-15.5,3.1-15.5,3.1H254.5c0,0-17.2-7.2-21.1-10.2
		c-3.9-3-6.7-8.1-8.9-12.1c-2.2-4-5.3-12.6-5.3-12.6V372.7c0,0,5.8-11.6,8-14.6C229.5,355,238.4,345.9,238.4,345.9z"/>
	<path class="st1" d="M307.2,363.6H331v32.3h32.7v24.2H331l-0.6,44.4c0,0,6.7,5,14.4,5s18.9-8.1,18.9-8.1l3.3-2v23.2
		c0,0-11.1,7.6-22.7,9.6c-11.6,2-26.1-1-30.5-3c-4.4-2-12.2-9.1-15-14.6c-2.8-5.6-5.5-17.2-5.5-26.2c0-9.1,0-29.3,0-29.3H280v-19.7
		c0,0,15-6.6,18.9-11.6c0,0,4.4-5.6,5.5-9.6C305.5,374.2,307.2,363.6,307.2,363.6z"/>
</g>
</svg>
