<?xml version="1.0" encoding="utf-8"?>
<!-- Generator: Adobe Illustrator 19.1.0, SVG Export Plug-In . SVG Version: 6.00 Build 0)  -->
<!DOCTYPE svg PUBLIC "-//W3C//DTD SVG 1.1//EN" "http://www.w3.org/Graphics/SVG/1.1/DTD/svg11.dtd">
<svg version="1.1" id="Layer_1" xmlns="http://www.w3.org/2000/svg" xmlns:xlink="http://www.w3.org/1999/xlink" x="0px" y="0px"
	 width="648px" height="864px" viewBox="0 0 648 864" style="enable-background:new 0 0 648 864;" xml:space="preserve">
<style type="text/css">
	.st0{fill:#030202;}
	.st1{fill:#4AC1BB;stroke:#030202;stroke-miterlimit:10;}
	.st2{fill:#08090A;}
	.st3{fill:#4AC1BB;stroke:#08090A;stroke-miterlimit:10;}
	.st4{fill:#4CC1BB;}
	.st5{fill:#07090A;}
	.st6{fill:#060709;}
</style>
<g>
	<path class="st0" d="M271.5,279.1c0,0,4.1-2.6,6-2.6c1.9,0,50.1,0,50.1,0s5.8,3,7.2,5.1c1.4,2.1,3.5,4.2,3.5,6.7
		c0,2.5,0,44.7,0,44.7s-1,4.6-2.6,6.4c-1.6,1.7-4.7,4.2-5.8,5.4c-1.2,1.2-5.5,1.2-5.5,1.2h-47.4c0,0-6-2.7-7.4-3.9
		c-1.4-1.2-2.3-3.1-3.1-4.6c-0.8-1.5-1.9-4.8-1.9-4.8v-43.4c0,0,2-4.4,2.8-5.6C268.4,282.6,271.5,279.1,271.5,279.1z"/>
	<path class="st1" d="M295.6,285.9h8.4v12.3h11.5v9.3H304l-0.2,17c0,0,2.3,1.9,5.1,1.9c2.7,0,6.6-3.1,6.6-3.1l1.2-0.8v8.9
		c0,0-3.9,2.9-8,3.7c-4.1,0.8-9.2-0.4-10.7-1.2s-4.3-3.5-5.3-5.6s-1.9-6.6-1.9-10c0-3.5,0-11.2,0-11.2h-4.7v-7.5
		c0,0,5.3-2.5,6.6-4.4c0,0,1.6-2.1,1.9-3.7C295.1,289.9,295.6,285.9,295.6,285.9z"/>
</g>
<g>
	
		<image style="overflow:visible;" width="100" height="100" xlink:href="linked-in.jpg"  transform="matrix(0.7962 0 0 0.7835 185.1329 271.9209)">
	</image>
	<path class="st2" d="M193.8,277.9c0,0,0.6-0.8,1.9-0.8c1.3,0,23,0,23,0h18.2H255c0,0,1.4,0.5,2.6,1.5c1.2,1.1,1.8,2.3,1.8,3.7
		c0.1,1.4,0,31.4,0,31.4l0,26.5c0,0-0.4,1.4-1,2.2c-0.6,0.8-2.3,2.3-2.7,2.5s-30.7,0-30.7,0l-29.5,0.1c0,0-1.6-0.4-2.7-1.3
		c-1.1-0.8-2.2-2.7-2.2-2.7v-22.2v-24v-13.4l1.3-1.9L193.8,277.9z"/>
	<ellipse class="st3" cx="206.8" cy="294.5" rx="6" ry="5.6"/>
	<rect x="201.7" y="303.5" class="st3" width="10.4" height="29.3"/>
	<path class="st3" d="M236.4,312.2c-0.8-1.2-3.8-1.7-5.1-1.1s-3.9,3.5-3.9,3.5v18.3h-10.3v-29.3h10.1l0.2,4c0,0,3.5-3.9,4.9-4.6
		c1.4-0.7,4.7-1.1,6.7-0.7c2,0.4,4.4,1.6,6.1,3.2s3.1,3.9,3.5,6.8s0,21.1,0,21.1h-10.4l-0.1-18L236.4,312.2z"/>
</g>
<g>
	<ellipse class="st4" cx="378.8" cy="311.3" rx="21.3" ry="21.1"/>
	<ellipse class="st5" cx="379.1" cy="311.3" rx="18.5" ry="17.9"/>
	<ellipse class="st4" cx="378.6" cy="311.1" rx="11.5" ry="10.8"/>
	<path class="st6" d="M343,300.3L343,300.3v36.6c0,0,0,2.3,0.4,3s1.2,1.9,1.9,2.6c0.7,0.7,2.4,2.1,3.2,2.5s2.4,1.3,2.4,1.3h30H407
		c0,0,3.8-2.2,4.6-3c0.8-0.7,2-2.1,2.4-2.7c0.4-0.6,0.8-1.8,0.8-1.8v-12.1v-26.9h-18.1c0,0,1.2,2,1.6,2.8c0.4,0.9,1,2.4,1.2,3.4
		c0.2,1,0.5,2.6,0.6,3.5c0.1,1,0.1,1.9,0.1,2c0,0.1-0.2,2.3-0.2,2.3s-0.4,2.4-0.8,3.6c-0.4,1.1-1.1,2.8-1.1,2.8s-1,1.9-1.4,2.5
		c-0.4,0.6-1.2,1.8-2,2.7s-1.9,2-3.4,3.1s-2.2,1.4-3,1.8s-1.9,0.8-1.9,0.8l-2,0.6c0,0-1.7,0.4-2.4,0.5s-2.2,0.2-2.7,0.2
		c-0.4,0-2.2,0-3.2-0.2c-1-0.1-2.5-0.5-3.3-0.7c-0.8-0.2-2.1-0.7-2.4-0.9s-1.7-0.8-2.3-1.2c-0.6-0.4-1.6-1-2.1-1.4s-1.3-1-2.1-1.8
		s-1.9-2.1-2.2-2.6s-1.2-1.8-1.6-2.5c-0.4-0.7-1.1-2.2-1.4-3.2s-0.6-2.1-0.8-3.1c-0.1-0.9-0.3-1.9-0.3-3c0-1.1,0-2.6,0.2-3.6
		s0.3-2,0.6-2.8c0.2-0.8,0.7-2.1,1.1-3c0.4-0.9,1.5-2.8,1.5-2.8h-5.9h-7.6H343V300.3z"/>
	<path class="st6" d="M347.9,278.4c0,0-2,1.8-2.8,2.8c-0.8,1.1-1.8,2.8-1.8,2.8v13.4h5.5h9.1h5.2c0,0,1-1.1,1.7-1.7
		c0.7-0.6,2.9-2.3,3.7-2.7c0.8-0.4,2.2-1.2,3.3-1.6c1.1-0.4,2.8-0.9,3.9-1c1.1-0.2,3.1-0.4,4.2-0.3c1,0.1,1.7,0.1,2.7,0.3
		c0.9,0.2,2.3,0.5,3.3,0.8c0.9,0.3,1.9,0.7,2.8,1.1c0.9,0.5,2.1,1.1,3.1,1.9c1,0.8,2,1.6,2.6,2.3c0.6,0.7,1,1.1,1,1.1h3.3h15h1.4
		v-5.4v-8.5c0,0-1.9-3.2-2.5-3.9c-0.6-0.7-2.6-2.1-3.1-2.5c-0.5-0.4-2-1.1-2-1.1H399h-13.6h-10.8h-4.5h-7.5l0.2,14v4.1
		c0,0-0.3,0.4-0.7,0.7c-0.4,0.3-1.3,0.4-1.5,0.4c-0.2,0-1-0.2-1.3-0.4c-0.3-0.3-0.4-0.5-0.4-0.5l0-5.3l0.1-13h-2.6l0.2,18.2
		c0,0-0.5,0.8-0.7,0.9s-1.3,0.2-1.6,0.1s-1-0.6-1.1-0.9c0-0.3,0.1-18.3,0.1-18.3h-2.5l0.2,18.3c0,0-0.4,0.8-0.6,0.9
		c-0.2,0.1-1.5,0.1-1.8,0s-0.9-0.7-1-0.8S347.9,278.4,347.9,278.4z"/>
	<path class="st4" d="M394.2,280.9v11.4c0,0,0.4,0.7,1,0.9c0.5,0.2,11.4,0,11.4,0s1.6-0.2,1.6-1.1s0-11.3,0-11.3s-0.8-1.2-1.5-1.3
		c-0.7-0.1-10.8,0-10.8,0s-0.3-0.1-1,0.6C394.2,280.9,394.2,280.9,394.2,280.9z"/>
	<path class="st5" d="M397,283.2v6.7c0,0,0.3,0.4,0.6,0.6c0.3,0.1,6.7,0,6.7,0s0.9-0.1,0.9-0.6c0-0.5,0-6.7,0-6.7s-0.5-0.7-0.9-0.8
		s-6.4,0-6.4,0s-0.2,0-0.6,0.4C397,283.2,397,283.2,397,283.2z"/>
</g>
</svg>
