<?xml version="1.0" encoding="utf-8"?>
<!-- Generator: Adobe Illustrator 19.1.0, SVG Export Plug-In . SVG Version: 6.00 Build 0)  -->
<!DOCTYPE svg PUBLIC "-//W3C//DTD SVG 1.1//EN" "http://www.w3.org/Graphics/SVG/1.1/DTD/svg11.dtd">
<svg version="1.1" id="Layer_1" xmlns="http://www.w3.org/2000/svg" xmlns:xlink="http://www.w3.org/1999/xlink" x="0px" y="0px"
	 width="648px" height="864px" viewBox="0 0 648 864" style="enable-background:new 0 0 648 864;" xml:space="preserve">
<style type="text/css">
	.st0{fill:#020202;}
	.st1{fill:#7B303E;}
</style>
<path class="st0" d="M246.6,108.3c1.3-2.5,3.6-6,8-8.3c3-1.5,6-1.9,8-2.1c8.2-0.6,47-0.5,99.9,0.3c0,0,3.8,0.9,5.7,1.9
	c1.8,1,4.1,2.9,5.5,5.4s1.7,4.6,1.7,4.6v84.5c0,0-0.9,2.9-2.2,4.6c-1.3,1.7-4.1,3.5-5.2,4.3s-6.2,2.1-6.2,2.1H259.6
	c0,0-6.6-2.1-8.2-3.5c-1.6-1.3-3.2-3-4.1-4.3c-0.9-1.3-1.3-2.8-1.3-2.8L246.6,108.3z"/>
<ellipse class="st1" cx="310.7" cy="151.6" rx="26.3" ry="21.1"/>
<path class="st1" d="M357.1,131.7h-19.8c-2,0-3.6-1.6-3.6-3.6v-14.4c0-2,1.6-3.6,3.6-3.6h19.8c2,0,3.6,1.6,3.6,3.6V128
	C360.8,130,359.1,131.7,357.1,131.7z"/>
<path class="st1" d="M260.6,143v47c0,0,0.8,3.9,4.4,4c3.5,0.1,91.5,0,91.5,0s4.4,0.8,4.2-4.9s0-46.1,0-46.1h-11.4
	c0,0,3.1,9.2,1.2,15s-3.4,9.6-7.1,13.4s-11.1,10.6-19.4,12.2s-16.2,2.2-20.8,1.1s-7.2-1.7-11.5-3.8c-4.2-2.1-8.5-4.6-10.6-6.7
	c-2-2-6.1-7.3-7.4-10.1s-2.3-7-2.3-9s-0.1-7.2,0.3-8.9s1.1-3.4,1.1-3.4H260.6z"/>
</svg>
