<?xml version="1.0" encoding="utf-8"?>
<!-- Generator: Adobe Illustrator 19.1.0, SVG Export Plug-In . SVG Version: 6.00 Build 0)  -->
<!DOCTYPE svg PUBLIC "-//W3C//DTD SVG 1.1//EN" "http://www.w3.org/Graphics/SVG/1.1/DTD/svg11.dtd">
<svg version="1.1" id="Layer_1" xmlns="http://www.w3.org/2000/svg" xmlns:xlink="http://www.w3.org/1999/xlink" x="0px" y="0px"
	 width="648px" height="864px" viewBox="0 0 648 864" style="enable-background:new 0 0 648 864;" xml:space="preserve">
<style type="text/css">
	.st0{fill:#FFFFFF;}
	.st1{fill:#89D3DA;}
</style>
<g>
	<rect x="34.8" y="128" class="st0" width="578.4" height="625.3"/>
	<g>
		<path class="st1" d="M119.7,287c4-9.9,11.5-23.5,25.6-32.2c9.7-5.9,19.2-7.5,25.6-8c26.2-2.4,149.8-2.1,318.3,1
			c0,0,12.3,3.5,18.1,7.5c5.9,4,13.2,11.4,17.6,20.9s5.4,17.9,5.4,17.9V623c0,0-2.8,11.4-7,18c-4.1,6.7-13.1,13.7-16.6,16.6
			c-3.5,2.8-19.7,8.1-19.7,8.1H161c0,0-21.1-8.3-26.2-13.5c-5.1-5.2-10.2-11.5-13.1-16.7c-2.9-5.2-4-10.8-4-10.8L119.7,287z"/>
		<ellipse class="st0" cx="324" cy="455.5" rx="83.8" ry="82"/>
		<path class="st0" d="M479.9,377.8h-78.9c-2,0-3.6-1.6-3.6-3.6V297c0-2,1.6-3.6,3.6-3.6h78.9c2,0,3.6,1.6,3.6,3.6v77.1
			C483.5,376.2,481.9,377.8,479.9,377.8z"/>
		<path class="st0" d="M164.4,422v182.8c0,0,2.6,15.3,13.9,15.7c11.3,0.4,291.7,0,291.7,0s13.9,3,13.5-19c-0.4-22,0-179.5,0-179.5
			h-36.2c0,0,9.9,35.7,4,58.4c-6,22.7-10.7,37.3-22.7,52.2s-35.5,41.2-62,47.6c-26.5,6.4-51.7,8.5-66.5,4.4
			c-14.8-4.1-23-6.7-36.5-14.7S236.6,551.8,230,544s-19.5-28.5-23.6-39.4c-4-10.9-7.5-27.3-7.5-34.9s-0.3-28.2,0.8-34.6
			s3.5-13.2,3.5-13.2H164.4z"/>
	</g>
</g>
</svg>
