<?xml version="1.0" encoding="utf-8"?>
<!-- Generator: Adobe Illustrator 19.1.0, SVG Export Plug-In . SVG Version: 6.00 Build 0)  -->
<!DOCTYPE svg PUBLIC "-//W3C//DTD SVG 1.1//EN" "http://www.w3.org/Graphics/SVG/1.1/DTD/svg11.dtd">
<svg version="1.1" id="Layer_1" xmlns="http://www.w3.org/2000/svg" xmlns:xlink="http://www.w3.org/1999/xlink" x="0px" y="0px"
	 width="648px" height="864px" viewBox="0 0 648 864" style="enable-background:new 0 0 648 864;" xml:space="preserve">
<style type="text/css">
	.st0{fill:#FFFFFF;}
	.st1{fill:#18D4C6;}
	.st2{fill:#030507;}
	.st3{fill:#030407;}
</style>
<path class="st0" d="M470.8,370h75.3c0,0,3.9,1.7,4.5,5.3"/>
<g>
	<ellipse class="st1" cx="323.9" cy="136.5" rx="29.6" ry="30.1"/>
	<ellipse class="st2" cx="324.3" cy="136.5" rx="25.7" ry="25.6"/>
	<ellipse class="st1" cx="323.5" cy="136.2" rx="16.1" ry="15.5"/>
	<path class="st3" d="M274,120.8v0.1V173c0,0,0,3.2,0.5,4.3c0.5,1.1,1.6,2.7,2.6,3.7c1,1,3.4,3,4.5,3.6c1.1,0.6,3.3,1.9,3.3,1.9
		h41.8h36.3c0,0,5.3-3.2,6.4-4.2c1.1-1,2.8-3,3.4-3.9c0.6-0.9,1.1-2.6,1.1-2.6v-17.3v-38.4h-25.2c0,0,1.7,2.8,2.2,4
		c0.5,1.2,1.3,3.4,1.7,4.9c0.3,1.5,0.7,3.7,0.8,5.1c0.1,1.4,0.1,2.7,0.1,2.8c0,0.2-0.2,3.2-0.2,3.2s-0.5,3.5-1.1,5.1s-1.5,4-1.5,4
		s-1.4,2.7-2,3.6s-1.7,2.6-2.8,3.8c-1.1,1.2-2.6,2.9-4.8,4.4c-2.2,1.4-3.1,2.1-4.2,2.6s-2.7,1.2-2.7,1.2l-2.7,0.9
		c0,0-2.3,0.6-3.3,0.7c-1,0.1-3.1,0.3-3.7,0.3c-0.6,0-3.1,0-4.4-0.2c-1.4-0.2-3.5-0.6-4.6-1c-1.1-0.3-2.9-1-3.4-1.3
		c-0.5-0.2-2.4-1.1-3.2-1.7c-0.8-0.5-2.2-1.4-3-2c-0.8-0.6-1.9-1.5-2.9-2.6c-1.1-1.1-2.6-3-3.1-3.7c-0.5-0.7-1.7-2.5-2.2-3.6
		c-0.5-1-1.5-3.2-1.9-4.5c-0.4-1.4-0.9-3-1.1-4.3c-0.2-1.3-0.4-2.8-0.4-4.3c0-1.5,0-3.7,0.3-5.1c0.2-1.4,0.5-2.8,0.8-4
		c0.3-1.2,1-3.1,1.6-4.3c0.6-1.3,2.1-3.9,2.1-3.9h-8.2h-10.6H274V120.8z"/>
	<path class="st3" d="M280.7,89.6c0,0-2.8,2.5-3.9,4c-1.1,1.5-2.5,4-2.5,4v19.1h7.6h12.7h7.2c0,0,1.4-1.6,2.3-2.5s4-3.2,5.1-3.8
		c1.1-0.6,3.1-1.7,4.6-2.2c1.5-0.5,4-1.3,5.5-1.5c1.5-0.2,4.4-0.5,5.8-0.4c1.5,0.1,2.4,0.1,3.7,0.4c1.3,0.2,3.3,0.7,4.5,1.1
		c1.3,0.5,2.6,1,3.9,1.6c1.3,0.7,2.9,1.6,4.3,2.6c1.4,1.1,2.8,2.3,3.7,3.2c0.9,1,1.4,1.6,1.4,1.6h4.7h21h2v-7.7V97.2
		c0,0-2.6-4.5-3.5-5.6c-0.9-1-3.6-3.1-4.3-3.6s-2.8-1.6-2.8-1.6H352h-18.9h-15.1h-6.2h-10.5l0.3,19.9v5.8c0,0-0.4,0.6-0.9,1
		c-0.5,0.4-1.8,0.6-2.1,0.6c-0.3,0-1.4-0.2-1.9-0.6c-0.5-0.4-0.6-0.7-0.6-0.7l0-7.6l0.2-18.5h-3.7l0.3,26c0,0-0.6,1.1-1,1.3
		s-1.9,0.3-2.2,0.1c-0.3-0.2-1.5-0.8-1.5-1.2c-0.1-0.4,0.2-26.1,0.2-26.1H285l0.3,26.1c0,0-0.6,1.1-0.8,1.2s-2,0.2-2.5,0
		s-1.2-1-1.3-1.2S280.7,89.6,280.7,89.6z"/>
	<path class="st1" d="M345.3,93.2v16.3c0,0,0.6,1.1,1.4,1.3c0.7,0.3,15.8,0,15.8,0s2.2-0.3,2.2-1.6c0-1.3,0-16.1,0-16.1
		s-1.1-1.7-2.1-1.8c-0.9-0.1-15,0-15,0s-0.4-0.1-1.4,0.9C345.3,93.2,345.3,93.2,345.3,93.2z"/>
	<path class="st2" d="M349.2,96.4v9.6c0,0,0.4,0.6,0.8,0.8c0.4,0.2,9.4,0,9.4,0s1.3-0.2,1.3-0.9s0-9.5,0-9.5s-0.7-1-1.2-1.1
		c-0.6-0.1-8.9,0-8.9,0s-0.2-0.1-0.8,0.5S349.2,96.4,349.2,96.4z"/>
</g>
</svg>
