<?xml version="1.0" encoding="utf-8"?>
<!-- Generator: Adobe Illustrator 19.1.0, SVG Export Plug-In . SVG Version: 6.00 Build 0)  -->
<!DOCTYPE svg PUBLIC "-//W3C//DTD SVG 1.1//EN" "http://www.w3.org/Graphics/SVG/1.1/DTD/svg11.dtd">
<svg version="1.1" id="Layer_2" xmlns="http://www.w3.org/2000/svg" xmlns:xlink="http://www.w3.org/1999/xlink" x="0px" y="0px"
	 width="230.8px" height="228.7px" viewBox="-208 318.3 230.8 228.7" style="enable-background:new -208 318.3 230.8 228.7;"
	 xml:space="preserve">
<style type="text/css">
	.st0{fill:#7B303E;}
</style>
<g>
	<path d="M-33.4,518.1h-121.3c-19.7,0-35.8-15.3-35.8-34.1V368.6c0-18.8,16.1-34.2,35.8-34.2h121.4c19.7,0,35.8,15.4,35.8,34.2V484
		C2.4,502.8-13.7,518.1-33.4,518.1z"/>
	<rect x="-190.5" y="391.9" class="st0" width="192.9" height="9.8"/>
	<ellipse class="st0" cx="-94.2" cy="428.9" rx="50.5" ry="48.1"/>
	<ellipse cx="-93.5" cy="428.9" rx="38.7" ry="37"/>
	<rect x="-142.6" y="334.4" class="st0" width="10.4" height="33.7"/>
	<rect x="-158.4" y="334.4" class="st0" width="10.4" height="33.7"/>
	<path class="st0" d="M-25.6,380.8h-8.9c-6.1,0-11-4.7-11-10.5v-8.3c0-5.8,5-10.5,11-10.5h8.9c6.1,0,11,4.7,11,10.5v8.3
		C-14.6,376-19.5,380.8-25.6,380.8z"/>
</g>
</svg>
