<?xml version="1.0" encoding="utf-8"?>
<!-- Generator: Adobe Illustrator 19.1.0, SVG Export Plug-In . SVG Version: 6.00 Build 0)  -->
<!DOCTYPE svg PUBLIC "-//W3C//DTD SVG 1.1//EN" "http://www.w3.org/Graphics/SVG/1.1/DTD/svg11.dtd">
<svg version="1.1" id="Layer_1" xmlns="http://www.w3.org/2000/svg" xmlns:xlink="http://www.w3.org/1999/xlink" x="0px" y="0px"
	 width="648px" height="864px" viewBox="0 0 648 864" style="enable-background:new 0 0 648 864;" xml:space="preserve">
<style type="text/css">
	.st0{fill:#18D4C6;}
	.st1{fill:#030507;}
	.st2{fill:#030407;}
</style>
<g>
	<ellipse class="st0" cx="328.4" cy="372.8" rx="21.3" ry="21.1"/>
	<ellipse class="st1" cx="328.6" cy="372.8" rx="18.5" ry="17.9"/>
	<ellipse class="st0" cx="328.1" cy="372.7" rx="11.5" ry="10.8"/>
	<path class="st2" d="M292.6,361.8L292.6,361.8v36.6c0,0,0,2.3,0.4,3c0.3,0.8,1.2,1.9,1.9,2.6c0.7,0.7,2.4,2.1,3.2,2.5
		c0.8,0.4,2.4,1.3,2.4,1.3h30h26.1c0,0,3.8-2.2,4.6-3c0.8-0.7,2-2.1,2.4-2.7c0.4-0.6,0.8-1.8,0.8-1.8v-12.1v-26.9h-18.1
		c0,0,1.2,2,1.6,2.8c0.4,0.9,1,2.4,1.2,3.4c0.2,1,0.5,2.6,0.6,3.5c0.1,1,0.1,1.9,0.1,2c0,0.1-0.2,2.3-0.2,2.3s-0.4,2.4-0.8,3.6
		c-0.4,1.1-1.1,2.8-1.1,2.8s-1,1.9-1.4,2.5c-0.4,0.6-1.2,1.8-2,2.7c-0.8,0.8-1.9,2-3.4,3.1s-2.2,1.4-3,1.8c-0.8,0.4-1.9,0.8-1.9,0.8
		l-2,0.6c0,0-1.7,0.4-2.4,0.5s-2.2,0.2-2.7,0.2c-0.4,0-2.2,0-3.2-0.2c-1-0.1-2.5-0.5-3.3-0.7c-0.8-0.2-2.1-0.7-2.4-0.9
		c-0.4-0.2-1.7-0.8-2.3-1.2c-0.6-0.4-1.6-1-2.1-1.4c-0.5-0.4-1.3-1-2.1-1.8s-1.9-2.1-2.2-2.6c-0.3-0.5-1.2-1.8-1.6-2.5
		c-0.4-0.7-1.1-2.2-1.4-3.2s-0.6-2.1-0.8-3.1c-0.1-0.9-0.3-1.9-0.3-3c0-1.1,0-2.6,0.2-3.6c0.2-1,0.3-2,0.6-2.8
		c0.2-0.8,0.7-2.1,1.1-3c0.4-0.9,1.5-2.8,1.5-2.8h-5.9h-7.6h-4.5V361.8z"/>
	<path class="st2" d="M297.4,339.9c0,0-2,1.8-2.8,2.8c-0.8,1.1-1.8,2.8-1.8,2.8V359h5.5h9.1h5.2c0,0,1-1.1,1.7-1.7
		c0.7-0.6,2.9-2.3,3.7-2.7c0.8-0.4,2.2-1.2,3.3-1.6c1.1-0.4,2.8-0.9,3.9-1s3.1-0.4,4.2-0.3c1,0.1,1.7,0.1,2.7,0.3
		c0.9,0.2,2.3,0.5,3.3,0.8c0.9,0.3,1.9,0.7,2.8,1.1c0.9,0.5,2.1,1.1,3.1,1.9c1,0.8,2,1.6,2.6,2.3c0.6,0.7,1,1.1,1,1.1h3.3h15h1.4
		v-5.4v-8.5c0,0-1.9-3.2-2.5-3.9s-2.6-2.1-3.1-2.5c-0.5-0.4-2-1.1-2-1.1h-8.4H335h-10.8h-4.5h-7.5l0.2,14v4.1c0,0-0.3,0.4-0.7,0.7
		s-1.3,0.4-1.5,0.4c-0.2,0-1-0.2-1.3-0.4c-0.3-0.3-0.4-0.5-0.4-0.5l0-5.3l0.1-13h-2.6l0.2,18.2c0,0-0.5,0.8-0.7,0.9
		c-0.3,0.1-1.3,0.2-1.6,0.1s-1-0.6-1.1-0.9c0-0.3,0.1-18.3,0.1-18.3h-2.5l0.2,18.3c0,0-0.4,0.8-0.6,0.9c-0.2,0.1-1.5,0.1-1.8,0
		s-0.9-0.7-1-0.8S297.4,339.9,297.4,339.9z"/>
	<path class="st0" d="M343.7,342.4v11.4c0,0,0.4,0.7,1,0.9s11.4,0,11.4,0s1.6-0.2,1.6-1.1s0-11.3,0-11.3s-0.8-1.2-1.5-1.3
		c-0.7-0.1-10.8,0-10.8,0s-0.3-0.1-1,0.6C343.7,342.4,343.7,342.4,343.7,342.4z"/>
	<path class="st1" d="M346.5,344.7v6.7c0,0,0.3,0.4,0.6,0.6c0.3,0.1,6.7,0,6.7,0s0.9-0.1,0.9-0.6c0-0.5,0-6.7,0-6.7
		s-0.5-0.7-0.9-0.8s-6.4,0-6.4,0s-0.2,0-0.6,0.4C346.5,344.7,346.5,344.7,346.5,344.7z"/>
</g>
</svg>
