<?xml version="1.0" encoding="utf-8"?>
<!-- Generator: Adobe Illustrator 19.1.0, SVG Export Plug-In . SVG Version: 6.00 Build 0)  -->
<!DOCTYPE svg PUBLIC "-//W3C//DTD SVG 1.1//EN" "http://www.w3.org/Graphics/SVG/1.1/DTD/svg11.dtd">
<svg version="1.1" id="Layer_1" xmlns="http://www.w3.org/2000/svg" xmlns:xlink="http://www.w3.org/1999/xlink" x="0px" y="0px"
	 width="648px" height="864px" viewBox="0 0 648 864" style="enable-background:new 0 0 648 864;" xml:space="preserve">
<style type="text/css">
	.st0{fill:#FFFFFF;}
	.st1{fill:#89D3DA;}
</style>
<g>
	<g>
		<rect x="34.8" y="117.3" class="st0" width="578.4" height="625.3"/>
	</g>
	<g>
		<ellipse class="st1" cx="227.7" cy="293.9" rx="35.7" ry="33.1"/>
		<rect x="196" y="354.4" class="st1" width="63.3" height="202.4"/>
		<path class="st1" d="M293.3,354.4v202.4h59.8V432.9c0,0,8.6-19,14.6-23.6c6.1-4.7,14.1-6.6,14.1-6.6s10.1-1.6,14.6,0.3
			c4.5,1.9,10.6,6.3,13.9,11.5c3.3,5.2,8.8,20.1,8.8,20.1v122.2h60.2V423.3c0,0-5.1-33.5-19.3-47.9s-18.3-15.1-27.8-19.5
			c-9.5-4.4-33.8-6.4-44.3-1.5c-10.5,4.8-23,16.6-23,16.6s-9.1,11.1-9.8,12.9s-1-28-1-28L293.3,354.4z"/>
	</g>
</g>
</svg>
