<?xml version="1.0" encoding="utf-8"?>
<!-- Generator: Adobe Illustrator 19.1.0, SVG Export Plug-In . SVG Version: 6.00 Build 0)  -->
<!DOCTYPE svg PUBLIC "-//W3C//DTD SVG 1.1//EN" "http://www.w3.org/Graphics/SVG/1.1/DTD/svg11.dtd">
<svg version="1.1" id="Layer_1" xmlns="http://www.w3.org/2000/svg" xmlns:xlink="http://www.w3.org/1999/xlink" x="0px" y="0px"
	 width="648px" height="864px" viewBox="0 0 648 864" style="enable-background:new 0 0 648 864;" xml:space="preserve">
<style type="text/css">
	.st0{fill:#08090A;}
	.st1{fill:#4AC1BB;stroke:#08090A;stroke-miterlimit:10;}
</style>
<g>
	
		<image style="overflow:visible;" width="100" height="100" xlink:href="linked-in.jpg"  transform="matrix(0.7962 0 0 0.7835 284.189 364.278)">
	</image>
	<path class="st0" d="M292.8,370.2c0,0,0.6-0.8,1.9-0.8c1.3,0,23,0,23,0h18.2H354c0,0,1.4,0.5,2.6,1.5c1.2,1.1,1.8,2.3,1.8,3.7
		c0.1,1.4,0,31.4,0,31.4l0,26.5c0,0-0.4,1.4-1,2.2c-0.6,0.8-2.3,2.3-2.7,2.5c-0.4,0.2-30.7,0-30.7,0l-29.5,0.1c0,0-1.6-0.4-2.7-1.3
		c-1.1-0.8-2.2-2.7-2.2-2.7v-22.2v-24v-13.4l1.3-1.9L292.8,370.2z"/>
	<ellipse class="st1" cx="305.8" cy="386.8" rx="6" ry="5.6"/>
	<rect x="300.7" y="395.9" class="st1" width="10.4" height="29.3"/>
	<path class="st1" d="M335.4,404.5c-0.8-1.2-3.8-1.7-5.1-1.1s-3.9,3.5-3.9,3.5v18.3h-10.3v-29.3h10.1l0.2,4c0,0,3.5-3.9,4.9-4.6
		c1.4-0.7,4.7-1.1,6.7-0.7c2,0.4,4.4,1.6,6.1,3.2s3.1,3.9,3.5,6.8c0.4,2.8,0,21.1,0,21.1h-10.4l-0.1-18L335.4,404.5z"/>
</g>
</svg>
