<?xml version="1.0" encoding="utf-8"?>
<!-- Generator: Adobe Illustrator 19.1.0, SVG Export Plug-In . SVG Version: 6.00 Build 0)  -->
<!DOCTYPE svg PUBLIC "-//W3C//DTD SVG 1.1//EN" "http://www.w3.org/Graphics/SVG/1.1/DTD/svg11.dtd">
<svg version="1.1" id="Layer_1" xmlns="http://www.w3.org/2000/svg" xmlns:xlink="http://www.w3.org/1999/xlink" x="0px" y="0px"
	 width="648px" height="864px" viewBox="0 0 648 864" style="enable-background:new 0 0 648 864;" xml:space="preserve">
<style type="text/css">
	.st0{fill:#08090A;}
	.st1{fill:#4AC1BB;stroke:#08090A;stroke-miterlimit:10;}
</style>
<g>
	
		<image style="overflow:visible;" width="100" height="100" xlink:href="linked-in.jpg"  transform="matrix(1.7563 0 0 1.6159 248.5793 244.0799)">
	</image>
	<path class="st0" d="M267.6,256.3c0,0,1.3-1.7,4.2-1.7s50.8,0,50.8,0h40.1h39.9c0,0,3.1,1,5.7,3.2c2.6,2.2,3.9,4.7,4,7.5
		c0.1,2.8,0,64.7,0,64.7l0.1,54.7c0,0-1,2.9-2.3,4.6c-1.3,1.7-5.1,4.7-5.9,5.2c-0.8,0.5-67.8,0-67.8,0l-65,0.2c0,0-3.5-0.9-5.9-2.6
		s-4.9-5.5-4.9-5.5v-45.7v-49.5v-27.7l2.8-3.9L267.6,256.3z"/>
	<ellipse class="st1" cx="296.3" cy="290.6" rx="13.3" ry="11.6"/>
	<rect x="285" y="309.3" class="st1" width="23" height="60.4"/>
	<path class="st1" d="M361.6,327.1c-1.8-2.4-8.3-3.4-11.2-2.4c-2.9,1.1-8.6,7.2-8.6,7.2v37.8h-22.6v-60.4h22.2l0.4,8.3
		c0,0,7.7-8.1,10.8-9.5s10.3-2.2,14.7-1.4c4.4,0.8,9.7,3.2,13.4,6.7c3.7,3.4,6.8,8.1,7.7,13.9c0.9,5.9,0,43.4,0,43.4h-23l-0.2-37.2
		L361.6,327.1z"/>
</g>
</svg>
