<?xml version="1.0" encoding="utf-8"?>
<!-- Generator: Adobe Illustrator 19.1.0, SVG Export Plug-In . SVG Version: 6.00 Build 0)  -->
<!DOCTYPE svg PUBLIC "-//W3C//DTD SVG 1.1//EN" "http://www.w3.org/Graphics/SVG/1.1/DTD/svg11.dtd">
<svg version="1.1" id="Layer_1" xmlns="http://www.w3.org/2000/svg" xmlns:xlink="http://www.w3.org/1999/xlink" x="0px" y="0px"
	 width="648px" height="864px" viewBox="0 0 648 864" style="enable-background:new 0 0 648 864;" xml:space="preserve">
<style type="text/css">
	.st0{fill:#020202;}
</style>
<g>
	<ellipse class="st0" cx="53.4" cy="19.4" rx="14.1" ry="11.9"/>
	<rect x="40.9" y="41.1" class="st0" width="25" height="72.6"/>
	<path class="st0" d="M79.4,41.1v72.6H103V69.3c0,0,3.4-6.8,5.8-8.5c2.4-1.7,5.6-2.4,5.6-2.4s4-0.6,5.8,0.1s4.2,2.3,5.5,4.1
		s3.5,7.2,3.5,7.2v43.8H153V65.8c0,0-2-12-7.6-17.2s-7.2-5.4-11-7c-3.7-1.6-13.4-2.3-17.5-0.5c-4.1,1.7-9.1,6-9.1,6s-3.6,4-3.9,4.6
		c-0.3,0.7-0.4-10-0.4-10L79.4,41.1z"/>
</g>
</svg>
