<?xml version="1.0" encoding="utf-8"?>
<!-- Generator: Adobe Illustrator 19.1.0, SVG Export Plug-In . SVG Version: 6.00 Build 0)  -->
<!DOCTYPE svg PUBLIC "-//W3C//DTD SVG 1.1//EN" "http://www.w3.org/Graphics/SVG/1.1/DTD/svg11.dtd">
<svg version="1.1" id="Layer_1" xmlns="http://www.w3.org/2000/svg" xmlns:xlink="http://www.w3.org/1999/xlink" x="0px" y="0px"
	 width="648px" height="864px" viewBox="0 0 648 864" style="enable-background:new 0 0 648 864;" xml:space="preserve">
<style type="text/css">
	.st0{fill:#08090A;}
	.st1{fill:#4AC1BB;stroke:#08090A;stroke-miterlimit:10;}
</style>
<g>
	
		<image style="overflow:visible;" width="100" height="100" xlink:href="linked-in.jpg"  transform="matrix(1 0 0 1 260.0307 90.1817)">
	</image>
	<path class="st0" d="M270.9,97.8c0,0,0.7-1,2.4-1s28.9,0,28.9,0H325h22.7c0,0,1.7,0.6,3.2,2s2.2,2.9,2.3,4.7c0.1,1.7,0,40.1,0,40.1
		l0,33.8c0,0-0.6,1.8-1.3,2.8s-2.9,2.9-3.4,3.2c-0.4,0.3-38.6,0-38.6,0l-37,0.1c0,0-2-0.6-3.4-1.6s-2.8-3.4-2.8-3.4v-28.3v-30.7
		v-17.2l1.6-2.4L270.9,97.8z"/>
	<ellipse class="st1" cx="287.2" cy="119" rx="7.6" ry="7.2"/>
	<rect x="280.8" y="130.5" class="st1" width="13.1" height="37.4"/>
	<path class="st1" d="M324.4,141.5c-1-1.5-4.7-2.1-6.4-1.5s-4.9,4.5-4.9,4.5v23.4h-12.9v-37.4h12.6l0.2,5.1c0,0,4.4-5,6.1-5.9
		c1.7-0.9,5.9-1.4,8.4-0.9c2.5,0.5,5.5,2,7.6,4.1s3.9,5,4.4,8.6s0,26.9,0,26.9h-13.1l-0.1-23L324.4,141.5z"/>
</g>
</svg>
