<?xml version="1.0" encoding="utf-8"?>
<!-- Generator: Adobe Illustrator 19.1.0, SVG Export Plug-In . SVG Version: 6.00 Build 0)  -->
<!DOCTYPE svg PUBLIC "-//W3C//DTD SVG 1.1//EN" "http://www.w3.org/Graphics/SVG/1.1/DTD/svg11.dtd">
<svg version="1.1" id="Layer_1" xmlns="http://www.w3.org/2000/svg" xmlns:xlink="http://www.w3.org/1999/xlink" x="0px" y="0px"
	 width="230.4px" height="229px" viewBox="-208 318 230.4 229" style="enable-background:new -208 318 230.4 229;"
	 xml:space="preserve">
<style type="text/css">
	.st0{fill:none;}
	.st1{fill:#7B303E;}
</style>
<g>
	<path d="M-34.6,514h-115c-18.7,0-33.9-15.6-33.9-34.7V362.1c0-19.1,15.3-34.7,33.9-34.7h115c18.7,0,33.9,15.6,33.9,34.7v117.1
		C-0.8,498.3-16,514-34.6,514z"/>
	<rect x="-151" y="358.8" class="st0" width="188.7" height="130"/>
	<path class="st1" d="M-117.8,372c0,6.5-4.9,11.8-12.5,11.8c-7.3,0-12.1-5.3-12-11.8c-0.2-6.9,4.7-12,12.1-12S-118,365.1-117.8,372z
		 M-141.7,468.9v-75.8h23V469L-141.7,468.9L-141.7,468.9z"/>
	<path class="st1" d="M-105.8,417.3c0-9.5-0.3-17.6-0.6-24.2h20.1l1,10.4h0.4c3.1-4.8,10.6-12.1,23-12.1c15.2,0,26.5,10.3,26.5,32.6
		v45h-23v-42.1c0-9.8-3.3-16.4-11.7-16.4c-6.4,0-10.2,4.5-11.7,8.8c-0.6,1.4-0.9,3.7-0.9,5.9V469h-23.1V417.3z"/>
</g>
</svg>
