<?xml version="1.0" encoding="utf-8"?>
<!-- Generator: Adobe Illustrator 19.1.0, SVG Export Plug-In . SVG Version: 6.00 Build 0)  -->
<!DOCTYPE svg PUBLIC "-//W3C//DTD SVG 1.1//EN" "http://www.w3.org/Graphics/SVG/1.1/DTD/svg11.dtd">
<svg version="1.1" id="Layer_1" xmlns="http://www.w3.org/2000/svg" xmlns:xlink="http://www.w3.org/1999/xlink" x="0px" y="0px"
	 width="648px" height="864px" viewBox="0 0 648 864" style="enable-background:new 0 0 648 864;" xml:space="preserve">
<style type="text/css">
	.st0{fill:#030202;}
	.st1{fill:#4AC1BB;stroke:#030202;stroke-miterlimit:10;}
</style>
<g>
	<path class="st0" d="M287.2,83.4c0,0,5-3.3,7.4-3.3c2.4,0,61.2,0,61.2,0s7.1,3.7,8.8,6.4c1.7,2.6,4.3,5.2,4.3,8.3s0,55.3,0,55.3
		s-1.2,5.7-3.1,7.9c-1.9,2.1-5.7,5.2-7.1,6.7c-1.4,1.5-6.7,1.5-6.7,1.5h-57.9c0,0-7.4-3.4-9.1-4.8c-1.7-1.4-2.9-3.8-3.8-5.7
		s-2.3-6-2.3-6V96c0,0,2.5-5.5,3.5-6.9C283.4,87.7,287.2,83.4,287.2,83.4z"/>
	<path class="st1" d="M316.8,91.7H327V107h14.1v11.4H327l-0.2,21c0,0,2.9,2.4,6.2,2.4s8.1-3.8,8.1-3.8l1.4-1v11c0,0-4.8,3.6-9.8,4.5
		c-5,1-11.2-0.5-13.1-1.4c-1.9-1-5.2-4.3-6.4-6.9c-1.2-2.6-2.4-8.1-2.4-12.4c0-4.3,0-13.8,0-13.8h-5.7v-9.3c0,0,6.4-3.1,8.1-5.5
		c0,0,1.9-2.6,2.4-4.5C316.1,96.7,316.8,91.7,316.8,91.7z"/>
</g>
</svg>
