<?xml version="1.0" encoding="utf-8"?>
<!-- Generator: Adobe Illustrator 19.1.0, SVG Export Plug-In . SVG Version: 6.00 Build 0)  -->
<!DOCTYPE svg PUBLIC "-//W3C//DTD SVG 1.1//EN" "http://www.w3.org/Graphics/SVG/1.1/DTD/svg11.dtd">
<svg version="1.1" id="Layer_1" xmlns="http://www.w3.org/2000/svg" xmlns:xlink="http://www.w3.org/1999/xlink" x="0px" y="0px"
	 width="648px" height="864px" viewBox="0 0 648 864" style="enable-background:new 0 0 648 864;" xml:space="preserve">
<style type="text/css">
	.st0{fill:#020202;}
</style>
<path class="st0" d="M46.3,10.7h16.1v25.7h28.9v15.1H62.8v29.8c0,0-0.2,6.2,0.9,7.8s2.2,4.5,8.1,5.3s11.8,0,15.2-1.1
	c3.3-1.1,8.7-3.4,8.7-3.4v15.4c0,0-10.5,4.1-17.8,4.8s-16.6,0.3-19.4,0c-2.8-0.3-9.3-2.4-10.8-3.1c-1.5-0.8-12-6.2-12.1-11.3
	c-0.1-5.1,0-43.6,0-43.6l-14.2-0.3V37.9c0,0,10.3-2.9,14.7-7.5s7.2-9.2,8.4-12.4S46.3,10.7,46.3,10.7z"/>
</svg>
