<?xml version="1.0" encoding="utf-8"?>
<!-- Generator: Adobe Illustrator 19.1.0, SVG Export Plug-In . SVG Version: 6.00 Build 0)  -->
<!DOCTYPE svg PUBLIC "-//W3C//DTD SVG 1.1//EN" "http://www.w3.org/Graphics/SVG/1.1/DTD/svg11.dtd">
<svg version="1.1" id="Layer_1" xmlns="http://www.w3.org/2000/svg" xmlns:xlink="http://www.w3.org/1999/xlink" x="0px" y="0px"
	 width="648px" height="864px" viewBox="0 0 648 864" style="enable-background:new 0 0 648 864;" xml:space="preserve">
<style type="text/css">
	.st0{fill:#7B303E;}
</style>
<g>
	<path d="M490.6,802H157.4c-54.1,0-98.3-44.6-98.3-99.2V368.2c0-54.5,44.2-99.2,98.3-99.2h333.2c54.1,0,98.3,44.6,98.3,99.2v334.7
		C588.7,757.4,544.7,802,490.6,802z"/>
	<path class="st0" d="M288.5,380.3h46.6v73.4h83.7v43.2h-82.6v85.2c0,0-0.6,17.7,2.6,22.3s6.4,12.9,23.5,15.1
		c17.1,2.3,34.2,0,44-3.1c9.6-3.1,25.2-9.7,25.2-9.7v44c0,0-30.4,11.7-51.6,13.7c-21.1,2-48.1,0.9-56.2,0s-26.9-6.9-31.3-8.9
		c-4.3-2.3-34.8-17.7-35.1-32.3c-0.3-14.6,0-124.6,0-124.6l-41.1-0.9V458c0,0,29.8-8.3,42.6-21.4c12.7-13.1,20.9-26.3,24.3-35.4
		C286.8,392,288.5,380.3,288.5,380.3z"/>
</g>
</svg>
