<?xml version="1.0" encoding="utf-8"?>
<!-- Generator: Adobe Illustrator 19.1.0, SVG Export Plug-In . SVG Version: 6.00 Build 0)  -->
<!DOCTYPE svg PUBLIC "-//W3C//DTD SVG 1.1//EN" "http://www.w3.org/Graphics/SVG/1.1/DTD/svg11.dtd">
<svg version="1.1" id="Layer_1" xmlns="http://www.w3.org/2000/svg" xmlns:xlink="http://www.w3.org/1999/xlink" x="0px" y="0px"
	 width="648px" height="864px" viewBox="0 0 648 864" style="enable-background:new 0 0 648 864;" xml:space="preserve">
<style type="text/css">
	.st0{fill:#FFFFFF;}
	.st1{fill:#6BCAD4;}
</style>
<g>
	<rect x="34.8" y="134.5" class="st0" width="578.4" height="625.3"/>
	<path class="st1" d="M294.7,233.8h50.4v103.3h90.4v60.7h-89.2v119.6c0,0-0.6,25.1,2.9,31.3c3.5,6.3,7,18.2,25.5,21.3
		s37.1,0,47.5-4.4s27.2-13.8,27.2-13.8v62c0,0-33,16.3-55.6,19.4c-22.6,3.1-52.1,1.4-60.8,0c-8.8-1.4-29.1-9.5-33.8-12.5
		c-4.7-3-37.5-24.8-37.8-45.3s0-175.1,0-175.1l-44.4-1.4v-55.8c0,0,32.1-11.6,46-30c13.9-18.4,22.7-36.8,26.5-49.7
		C293.1,250.7,294.7,233.8,294.7,233.8z"/>
</g>
</svg>
