<?xml version="1.0" encoding="utf-8"?>
<!-- Generator: Adobe Illustrator 19.1.0, SVG Export Plug-In . SVG Version: 6.00 Build 0)  -->
<!DOCTYPE svg PUBLIC "-//W3C//DTD SVG 1.1//EN" "http://www.w3.org/Graphics/SVG/1.1/DTD/svg11.dtd">
<svg version="1.1" id="Layer_1" xmlns="http://www.w3.org/2000/svg" xmlns:xlink="http://www.w3.org/1999/xlink" x="0px" y="0px"
	 width="648px" height="864px" viewBox="0 0 648 864" style="enable-background:new 0 0 648 864;" xml:space="preserve">
<style type="text/css">
	.st0{fill:#030202;}
	.st1{fill:#4AC1BB;stroke:#030202;stroke-miterlimit:10;}
</style>
<g>
	<path class="st0" d="M293.9,379.1c0,0,4.1-2.6,6-2.6s50.1,0,50.1,0s5.8,3,7.2,5.1c1.4,2.1,3.5,4.2,3.5,6.7c0,2.5,0,44.7,0,44.7
		s-1,4.6-2.6,6.4c-1.6,1.7-4.7,4.2-5.8,5.4c-1.2,1.2-5.5,1.2-5.5,1.2h-47.4c0,0-6-2.7-7.4-3.9c-1.4-1.2-2.3-3.1-3.1-4.6
		c-0.8-1.5-1.9-4.8-1.9-4.8v-43.4c0,0,2-4.4,2.8-5.6C290.8,382.6,293.9,379.1,293.9,379.1z"/>
	<path class="st1" d="M318.1,385.8h8.4v12.3H338v9.3h-11.5l-0.2,17c0,0,2.3,1.9,5.1,1.9c2.7,0,6.6-3.1,6.6-3.1l1.2-0.8v8.9
		c0,0-3.9,2.9-8,3.7c-4.1,0.8-9.2-0.4-10.7-1.2s-4.3-3.5-5.3-5.6s-1.9-6.6-1.9-10c0-3.5,0-11.2,0-11.2h-4.7v-7.5
		c0,0,5.3-2.5,6.6-4.4c0,0,1.6-2.1,1.9-3.7C317.5,389.9,318.1,385.8,318.1,385.8z"/>
</g>
</svg>
